<?xml version="1.0" encoding="UTF-8"?> <svg xmlns="http://www.w3.org/2000/svg" viewBox="0 0 1400.00 199.12" data-guides="{&quot;vertical&quot;:[],&quot;horizontal&quot;:[]}"><defs></defs><path fill="#ee4d1a" stroke="none" fill-opacity="1" stroke-width="1" stroke-opacity="1" alignment-baseline="baseline" baseline-shift="baseline" clip-rule="evenodd" fill-rule="evenodd" id="tSvg118612888e7" title="Path 1" d="M1233.0405 43.7946C1234.1032 43.2352 1236.9558 41.8369 1241.5982 39.7115C1246.2406 37.586 1252.7848 36.4673 1261.1747 36.4673C1269.5646 36.4673 1280.8631 40.6623 1295.126 48.9404C1293.6158 48.6607 1291.77 48.6048 1289.5327 48.7726C1288.6937 48.8285 1288.0225 48.8844 1287.4072 48.9963C1285.953 49.4997 1288.1344 50.3946 1294.0073 51.737C1299.8243 53.0794 1307.0956 56.8826 1315.7652 63.0912C1314.3109 62.6996 1312.1296 62.1962 1309.3329 61.525C1306.4803 60.8539 1306.1447 61.1335 1308.2702 62.3081C1309.8736 63.203 1311.477 64.098 1313.0804 64.9929C1315.094 66.1675 1316.5483 67.3421 1317.4432 68.4607C1317.3499 68.4607 1317.2568 68.4607 1317.1635 68.4607C1316.3245 68.1811 1314.3109 67.7895 1311.1228 67.2302C1307.9346 66.7268 1304.5786 66.5031 1301.1108 66.559C1297.6429 66.6149 1295.6853 66.8387 1295.3497 67.1743C1294.9582 67.5099 1295.5734 67.9573 1297.1955 68.4048C1298.8175 68.9082 1304.5786 70.4184 1314.5906 72.8794C1323.5399 75.4523 1330.5315 78.3049 1335.5095 81.3812C1336.0688 81.7168 1336.5722 82.0524 1337.0756 82.388C1335.6773 82.388 1334.279 82.388 1332.8807 82.388C1329.6925 82.6117 1333.0485 85.1847 1343.0604 90.1627C1353.0724 95.1407 1369.7404 100.6781 1393.1204 106.7748C1391.778 106.9985 1390.2678 107.1663 1388.5898 107.2781C1386.9118 107.3341 1385.2338 107.5019 1383.4999 107.7256C1381.766 107.9493 1384.7304 108.6205 1392.3932 109.8511C1394.0712 110.1307 1395.6373 110.3545 1397.1475 110.5223C1398.0425 110.6341 1398.9374 110.746 1399.8323 110.8579C1399.8323 73.905 1399.8323 36.952 1399.8323 -0.0009C933.2215 -0.0009 466.6108 -0.0009 0 -0.0009C0 59.7913 0 119.5834 0 179.3756C6.8797 179.2078 14.4307 178.6485 22.7647 177.6976C28.9732 176.9705 33.8953 176.1875 37.6428 175.2925C36.3564 177.1942 35.2377 178.8722 34.3987 180.5502C32.7207 183.7943 31.7699 186.4232 31.5461 188.4927C31.2665 190.6181 31.2105 192.2402 31.2665 193.4148C31.3224 194.5894 31.4902 195.9318 31.7699 197.3301C31.9936 198.7843 32.3851 199.2318 32.9445 198.7843C33.4479 198.4487 34.7903 196.3233 37.0276 192.4639C37.475 191.6809 38.314 190.5063 39.5445 188.8842C40.7751 187.3181 42.0615 185.9198 43.4039 184.8011C44.7463 183.6825 46.5362 182.5079 48.8853 181.2214C51.2345 179.935 54.4227 178.6485 58.4499 177.3061C62.1414 176.0756 65.7211 174.7891 69.189 173.4467C71.5382 172.5518 73.8314 171.601 76.0687 170.6501C78.9772 169.4196 81.9417 168.0213 84.9061 166.4551C86.0807 165.8399 87.0875 165.3365 88.0384 164.7771C89.4926 163.9941 90.6113 163.267 91.4503 162.6517C92.7926 161.7008 94.4147 160.5262 96.3164 159.1279C98.1622 157.7296 100.6233 155.5482 103.6436 152.6956C103.7555 152.5838 103.9233 152.4719 104.0352 152.3041C105.0979 151.2973 106.3843 150.0668 107.8386 148.6125C107.7267 152.1922 107.9505 153.3668 108.5657 152.1922C109.125 151.0177 110.1878 149.1719 111.698 146.7108C112.7607 144.9769 114.1031 143.1871 115.7251 141.2294C116.5082 140.3345 117.3472 139.4396 118.2421 138.4887C121.0388 135.5243 123.4998 133.2869 125.6252 131.7767C127.7507 130.2666 129.8202 128.9242 131.9457 127.6377C129.9321 132.0564 127.1354 136.8666 123.5557 142.1243C123.4439 142.2362 122.7727 143.4667 121.4303 145.76C120.0879 148.1091 120.5913 148.8922 122.8845 148.221C124.6744 147.5498 126.5202 146.599 128.4219 145.4244C130.2677 144.2498 132.3931 142.404 134.7982 139.887C137.2034 137.37 141.5102 132.4479 147.7187 125.1767C150.7391 121.597 153.4798 118.5766 155.9968 116.0596C157.8985 114.1579 159.6324 112.5918 161.1986 111.3053C165.5054 107.7815 169.8682 105.2086 174.3428 103.6984C174.3428 103.8662 174.2309 105.1527 174.0072 107.5578C173.7835 109.9629 173.7275 110.8579 173.8953 110.2985C173.8394 111.8087 174.3987 112.1443 175.6852 111.3612C176.9716 110.5782 178.8734 108.5646 181.5022 105.4324C182.3412 104.4256 183.2361 103.3069 184.187 102.1323C187.5429 97.8814 190.2837 94.3017 192.465 91.5051C193.1362 90.6101 193.8074 89.7712 194.3668 89.044C194.7024 88.6525 194.982 88.205 195.2617 87.8135C196.1566 86.6389 196.8837 85.6881 197.3871 84.9609C196.9397 91.7288 197.5549 92.7915 199.2889 88.0932C200.9668 83.4507 202.9245 80.0388 205.0499 77.9134C207.1754 75.732 208.4059 74.5574 208.6296 74.3896C213.7755 70.1387 218.6416 66.6709 223.1163 63.9302C223.1722 63.9302 223.34 63.8183 223.6197 63.6505C223.8993 63.4827 224.5705 63.0352 225.5773 62.364C226.5841 61.6928 228.9892 60.2386 232.7367 58.0572C236.4842 55.8761 242.0216 53.0794 249.2928 49.5556C253.2641 47.6539 256.8997 45.9759 260.1998 44.5776C258.8574 46.1997 256.676 49.276 253.5997 53.8625C250.5234 58.4487 250.3556 59.6793 253.0404 57.4979C257.4031 53.7506 261.8218 50.059 266.2405 46.4234C270.6592 42.7878 273.3999 40.6064 274.4067 39.8792C275.4135 39.1521 276.0288 38.7047 276.3084 38.5928C275.5254 40.5504 275.5254 41.1657 276.3084 40.5504C276.8678 40.047 277.539 39.4877 278.2101 38.8725C278.8813 38.3131 279.4966 37.8097 280.1119 37.4181C280.6712 37.0266 281.3983 36.6351 282.2932 36.1877C283.1882 35.7402 284.978 35.069 287.6069 34.0622C296.2205 30.874 303.9952 28.7485 310.819 27.7418C317.5869 26.6791 323.404 26.0638 328.3261 25.896C326.8159 26.0079 324.0752 26.8469 320.0479 28.4689C316.0208 30.0909 313.2241 31.6012 311.658 33.0554C310.036 34.5097 310.2597 34.9572 312.2173 34.4538C314.9581 33.6148 318.2581 32.7758 322.1175 32.0486C326.3125 31.2656 331.1786 30.5385 336.716 29.8672C345.1619 28.8605 353.0484 28.6367 360.4875 29.1961C355.5094 33.391 354.6705 34.9572 357.9705 33.8944C361.2705 32.8317 364.2909 31.9927 367.0316 31.4893C369.7723 30.9859 373.1283 30.8181 377.0436 31.0419C376.9317 31.0978 376.5961 31.3215 376.0368 31.769C375.4775 32.2164 376.5402 32.3842 379.1691 32.3283C381.7979 32.2724 384.3708 32.3842 386.7759 32.608C389.237 32.8317 394.8862 33.6707 403.7236 34.9572C412.561 36.2995 421.2306 38.9284 429.6764 42.8437C422.8526 42.62 417.7627 43.7386 414.4627 46.1997C411.1067 48.6607 410.883 49.7234 413.7356 49.3319C416.5882 48.9404 419.5526 48.6607 422.6848 48.4929C425.7611 48.3251 429.9561 48.6607 435.2138 49.5556C440.4715 50.4506 444.7783 50.954 448.1902 51.0658C451.6021 51.1777 455.07 51.0658 458.5937 50.6184C461.5582 50.2828 465.7532 49.4997 471.1786 48.2692C470.1159 48.9404 469.2769 49.4997 468.7176 49.8353C467.4871 50.6184 466.8159 51.2336 466.6481 51.5133C466.6853 51.5133 466.7226 51.5133 466.7599 51.5133C469.8363 51.4574 474.3668 50.3946 480.2957 48.437C486.2246 46.4234 490.8111 44.6895 493.9993 43.2352C493.7196 43.5149 493.384 43.9064 492.8806 44.3539C491.7619 45.5285 490.3636 46.7031 488.6856 47.8777C487.0076 49.1082 487.2873 49.7234 489.4687 49.7794C490.867 49.8353 492.7128 49.6116 494.9501 49.22C496.0688 48.9963 497.2434 48.7166 498.5858 48.381C502.5011 47.3743 505.8011 46.0878 508.4299 44.4657C511.0588 42.8437 513.9673 40.6623 517.2114 37.9216C519.0013 36.4114 521.5742 34.1182 524.9301 31.0978C529.7404 26.9588 535.6133 23.8824 542.4931 21.9248C546.4643 20.8061 550.6593 20.0231 555.022 19.6875C556.1407 19.5756 557.3153 19.5197 558.4899 19.4637C558.7695 19.4637 559.0492 19.4637 559.3289 19.4637C558.2661 20.079 557.3712 20.918 556.7 21.9807C556.0288 23.0994 556.6441 23.3231 558.6017 22.7079C560.5035 22.0926 562.517 21.5333 564.6425 21.1417C566.7679 20.7502 568.4459 20.5823 569.7324 20.6383C568.2222 21.4213 567.3832 22.0366 567.2154 22.4282C567.0476 22.8756 567.8866 22.8197 569.6764 22.2604C571.4663 21.7011 573.1443 21.3095 574.7104 21.0858C576.2765 20.918 578.346 20.9739 580.919 21.3655C583.4919 21.757 587.9106 22.7638 594.0632 24.4418C597.0276 25.2248 599.8243 26.1198 602.509 27.0147C610.06 29.5876 616.4923 32.4961 621.9737 35.8521C613.2482 34.7894 606.2006 35.5724 600.8311 38.2571C595.4615 40.9979 595.853 42.6759 601.9497 43.3471C605.5854 43.7386 609.3329 44.2979 613.1922 44.9132C613.4719 44.9132 612.9126 45.1369 611.5702 45.6963C610.2278 46.2556 610.7871 46.4793 613.3041 46.4234C615.7651 46.3675 618.1143 46.4234 620.2957 46.5912C622.4771 46.8149 624.9381 47.2065 627.6788 47.8217C630.4196 48.437 633.8874 49.5556 638.0264 51.2896C642.1655 53.0235 646.3604 55.0929 650.5554 57.5538C652.513 58.7284 654.3588 59.8471 656.0368 60.9098C657.9945 62.1403 659.7843 63.3708 661.4064 64.4895C658.7216 64.2098 656.3165 64.4895 654.3029 65.3285C652.2334 66.1675 651.0588 66.9505 650.8351 67.5658C650.5554 68.1811 650.7791 68.5167 651.4503 68.5726C652.1215 68.6285 653.5758 68.6285 655.7012 68.6285C656.8199 68.6285 657.9945 68.6845 659.1131 68.6845C660.2318 68.7404 661.8538 68.8523 663.8674 69.1319C665.9369 69.4116 668.9014 70.0268 672.7607 71.0336C673.7116 71.3133 674.7743 71.593 676.0608 71.9286C675.054 72.1523 674.3269 72.5438 673.8794 73.0472C674.2709 73.271 674.9981 73.4947 676.0049 73.6066C677.0116 73.7184 678.354 73.8303 679.9761 73.9421C681.5422 74.054 683.1083 74.2777 684.6744 74.6133C686.1846 75.0049 689.205 75.8439 693.7915 77.2981C710.2358 82.388 728.7496 86.1915 749.3329 88.5966C748.7176 89.2678 748.1023 90.1068 747.5989 91.1135C746.7599 92.6797 746.3684 93.9102 746.3684 94.917C746.3684 95.8678 746.5921 96.3153 746.9837 96.3153C747.3752 96.3153 747.9905 96.2034 748.7735 95.8678C749.5566 95.5882 751.738 94.6932 755.2058 93.1831C758.6736 91.6729 761.75 91.2254 764.4347 91.7847C763.0923 91.8966 762.1974 92.5678 761.8059 93.6865C761.4144 94.8051 763.6517 94.7492 768.4619 93.4068C773.2721 92.1203 781.0468 91.2813 791.7859 90.8339C802.525 90.3864 813.8794 88.7644 825.7931 85.9118C825.3456 86.583 823.9473 88.1491 821.5981 90.6661C820.4795 91.8407 819.6964 92.7356 819.1371 93.4068C817.8506 94.8051 818.354 95.2526 820.7591 94.6373C826.1846 92.7915 831.722 90.3305 837.3712 87.1423C843.0204 84.0101 850.1239 80.8778 858.6816 77.8015C867.2394 74.7811 882.6768 68.3489 904.9941 58.5047C903.8195 59.7911 902.9245 60.7979 902.3652 61.525C901.8618 62.1403 901.5822 62.5318 901.4703 62.6437C900.2957 64.3776 900.3516 64.881 901.5822 64.042C901.9737 63.8183 902.6449 63.3708 903.7076 62.6437C904.7144 61.9725 906.0009 61.1335 907.567 60.0708C910.867 58.0013 913.3281 56.8267 915.006 56.4352C914.9501 56.9386 914.223 58.7843 912.8806 61.9725C911.6501 64.937 911.0907 67.0624 911.0907 68.4607C911.0907 69.1879 911.2026 69.7472 911.3704 70.1387C911.5941 70.8658 912.2094 70.6421 913.1603 69.4675C914.1111 68.2929 916.1806 65.7759 919.4247 61.9166C922.6689 58.0572 927.8706 53.3591 935.03 47.8217C942.1894 42.2844 956.3964 36.9707 977.6509 31.8808C977.0916 32.0486 976.5323 32.3283 975.9729 32.7198C975.4695 33.1114 974.8543 33.6148 974.1272 34.286C973.4 34.9572 972.7848 35.908 972.3373 37.1945C971.8339 38.4809 971.8898 39.0402 972.3932 38.8165C972.8966 38.6487 973.9034 38.0894 975.4136 37.2504C976.9238 36.4114 979.2171 35.069 982.4052 33.2792C985.5934 31.4893 990.3477 29.9232 996.8359 28.4689C1002.8767 27.1266 1014.3429 26.3994 1031.3465 26.2316C1032.4652 26.2316 1033.5838 26.2316 1034.7584 26.2316C1048.462 26.735 1061.2147 29.1961 1073.1284 33.6148C1066.3605 33.391 1060.8231 34.0063 1056.4604 35.3487C1056.4044 35.4046 1056.2926 35.4046 1056.2366 35.4605C1052.9366 36.5232 1053.4959 37.1945 1057.9146 37.4181C1062.3333 37.6419 1066.8639 37.8656 1071.4504 37.9775C1079.1691 38.2571 1085.3217 39.2081 1089.8523 40.886C1088.2862 40.942 1086.8319 41.3335 1085.5455 42.1166C1084.259 42.8996 1084.1471 43.2352 1085.2658 43.2352C1089.3489 42.62 1094.9422 42.7318 1101.9338 43.5708C1103.2762 43.7386 1104.6745 43.9064 1106.1288 44.1301C1108.0305 44.4098 1109.9881 44.7454 1112.0017 45.081C1115.8051 45.7522 1120.2238 46.4793 1125.2019 47.4302C1134.7105 49.22 1143.436 50.5624 1151.4344 51.3455C1150.2039 51.2896 1148.3581 51.8489 1145.953 53.0235C1143.2123 54.3659 1144.0513 54.9811 1148.5259 54.8133C1153.0005 54.6455 1156.9158 54.4218 1160.3277 54.0862C1163.7396 53.7506 1165.9769 53.5269 1166.9837 53.4709C1167.9905 53.415 1170.116 53.1913 1173.3601 52.8557C1168.438 56.0436 1166.4244 57.7216 1167.2634 57.8894C1168.1024 58.0572 1175.2618 56.7148 1188.6857 53.8625C1201.2147 51.1777 1214.1351 46.759 1227.3912 40.6623C1226.5522 41.1098 1225.6573 42.1724 1224.5946 43.8504C1223.5319 45.5284 1224.5946 45.4166 1227.8946 43.459C1229.9642 42.2844 1231.4743 41.3334 1232.5371 40.6064C1231.9218 43.2911 1232.0337 44.3539 1233.0405 43.7946Z"></path></svg> 